HIERARCHY
ROOT Hips
{
 OFFSET 0.000000 0.000000 0.000000
 CHANNELS 6 Xposition Yposition Zposition Yrotation Xrotation Zrotation
 JOINT Chest
 {
  OFFSET 0.000000 9.585900 0.002600
  CHANNELS 3 Yrotation Xrotation Zrotation
  JOINT Chest2
  {
   OFFSET 0.000000 9.601200 -0.005300
   CHANNELS 3 Yrotation Xrotation Zrotation
   JOINT Chest3
   {
    OFFSET 0.000000 9.561800 0.000000
    CHANNELS 3 Yrotation Xrotation Zrotation
    JOINT Chest4
    {
     OFFSET 0.000000 9.552100 0.000000
     CHANNELS 3 Yrotation Xrotation Zrotation
     JOINT Neck
     {
      OFFSET 0.000000 14.453000 0.000000
      CHANNELS 3 Yrotation Xrotation Zrotation
      JOINT Head
      {
       OFFSET 0.000000 8.936500 -0.011300
       CHANNELS 3 Yrotation Xrotation Zrotation
       End Site
       {
        OFFSET 0.000000 17.073600 -0.006000
       }
      }
     }
     JOINT RightCollar
     {
      OFFSET -2.921100 9.558500 0.000000
      CHANNELS 3 Yrotation Xrotation Zrotation
      JOINT RightShoulder
      {
       OFFSET -13.519700 0.000000 0.000000
       CHANNELS 3 Yrotation Xrotation Zrotation
       JOINT RightElbow
       {
        OFFSET 0.000000 -29.696600 0.000000
        CHANNELS 3 Yrotation Xrotation Zrotation
        JOINT RightWrist
        {
         OFFSET 0.000000 -24.004700 0.000000
         CHANNELS 3 Yrotation Xrotation Zrotation
         End Site
         {
          OFFSET 0.000000 -17.728500 0.000000
         }
        }
       }
      }
     }
     JOINT LeftCollar
     {
      OFFSET 2.921100 9.558500 0.000000
      CHANNELS 3 Yrotation Xrotation Zrotation
      JOINT LeftShoulder
      {
       OFFSET 13.519700 0.000000 0.000000
       CHANNELS 3 Yrotation Xrotation Zrotation
       JOINT LeftElbow
       {
        OFFSET 0.000000 -29.696600 0.000000
        CHANNELS 3 Yrotation Xrotation Zrotation
        JOINT LeftWrist
        {
         OFFSET 0.000000 -24.004700 0.000000
         CHANNELS 3 Yrotation Xrotation Zrotation
         End Site
         {
          OFFSET 0.000000 -17.728500 0.000000
         }
        }
       }
      }
     }
    }
   }
  }
 }
 JOINT RightHip
 {
  OFFSET -7.771700 -0.012900 -0.001300
  CHANNELS 3 Yrotation Xrotation Zrotation
  JOINT RightKnee
  {
   OFFSET 0.000000 -40.869800 0.001200
   CHANNELS 3 Yrotation Xrotation Zrotation
   JOINT RightAnkle
   {
    OFFSET 0.000000 -39.717900 0.002100
    CHANNELS 3 Yrotation Xrotation Zrotation
    JOINT RightToe
    {
     OFFSET 0.000000 -4.965400 11.033500
     CHANNELS 3 Yrotation Xrotation Zrotation
     End Site
     {
      OFFSET 0.000000 -1.423100 5.872300
     }
    }
   }
  }
 }
 JOINT LeftHip
 {
  OFFSET 7.771700 -0.012900 -0.001300
  CHANNELS 3 Yrotation Xrotation Zrotation
  JOINT LeftKnee
  {
   OFFSET 0.000000 -40.869800 0.001200
   CHANNELS 3 Yrotation Xrotation Zrotation
   JOINT LeftAnkle
   {
    OFFSET 0.000000 -39.717900 0.002100
    CHANNELS 3 Yrotation Xrotation Zrotation
    JOINT LeftToe
    {
     OFFSET 0.000000 -4.965400 11.033500
     CHANNELS 3 Yrotation Xrotation Zrotation
     End Site
     {
      OFFSET 0.000000 -1.423100 5.872300
     }
    }
   }
  }
 }
}
MOTION
Frames: 9
Frame Time: 0.008333
-7.061771 55.354996 24.643206 -179.406478 -32.275294 -9.455441 0.391834 14.770880 5.174000 0.195290 8.430702 2.508214 0.340985 10.650428 3.164068 0.212344 8.481105 2.515930 4.607111 24.364699 -3.372589 5.827172 0.887327 -4.755537 0.896712 5.163520 -1.809438 -17.958054 -13.053453 5.874110 -64.625408 -45.006250 76.291772 0.897180 -8.551906 1.841618 -10.967545 4.908293 -3.091029 8.551790 -6.475341 -2.840800 39.713619 -84.923906 -32.173484 18.000537 -15.163613 -13.802736 -16.612267 -33.849368 6.347048 41.771913 86.861336 38.800010 0.527502 -17.962598 -1.000122 -0.010867 0.574938 0.038194 -12.924628 -45.554046 13.197717 -179.575939 80.755352 175.015176 -2.233646 -17.386732 3.108112 -0.026599 -0.558088 -0.018367
-7.067639 55.359976 24.648549 -179.398509 -32.259843 -9.463711 0.398562 14.793091 5.183084 0.216173 8.494055 2.520352 0.330259 10.615453 3.164339 0.207291 8.454458 2.515129 4.589586 24.354425 -3.362238 5.794764 0.823953 -4.745475 0.883067 5.158182 -1.807568 -17.946162 -13.014707 5.874051 -64.631486 -45.210913 76.222555 0.970014 -8.529718 1.907261 -10.961866 4.958044 -3.072865 8.566592 -6.482981 -2.867989 40.659527 -84.883192 -33.076736 17.973062 -15.142638 -13.847475 -16.617887 -33.861480 6.352681 41.663071 86.850939 38.691832 0.535249 -17.951856 -1.008800 -0.009764 0.572298 0.038899 -12.922861 -45.570252 13.193194 -179.565410 80.762854 175.028827 -2.225983 -17.379981 3.116417 -0.029339 -0.556973 -0.017961
-7.073023 55.364363 24.651885 -179.393966 -32.242047 -9.470920 0.407106 14.813405 5.191645 0.219822 8.505321 2.524912 0.335046 10.629437 3.170154 0.215283 8.486023 2.522641 4.560936 24.272180 -3.373724 5.771020 0.781218 -4.734630 0.860234 5.128051 -1.804963 -17.941355 -13.005937 5.884406 -64.648048 -45.430772 76.171749 1.039689 -8.501946 1.977728 -10.962774 4.946087 -3.053245 8.573699 -6.505867 -2.884891 41.562787 -84.832202 -33.942869 17.923523 -15.155188 -13.912779 -16.622259 -33.874195 6.368308 41.594666 86.843594 38.618213 0.519803 -17.949341 -1.007588 -0.007738 0.571144 0.028044 -12.908191 -45.590544 13.183257 -179.563239 80.767253 175.043393 -2.222777 -17.375931 3.122568 -0.029562 -0.556505 -0.015182
-7.078211 55.368441 24.652336 -179.390739 -32.226638 -9.475116 0.416762 14.835772 5.198656 0.216070 8.491432 2.526320 0.344575 10.664461 3.177826 0.222628 8.514576 2.529254 4.534136 24.196241 -3.385773 5.764414 0.758952 -4.737544 0.835205 5.099561 -1.800558 -17.941550 -12.991618 5.898681 -64.668307 -45.650076 76.141378 1.112103 -8.472208 2.035369 -10.968243 4.919792 -3.039144 8.570653 -6.547816 -2.897418 42.063264 -84.781927 -34.409799 17.938366 -15.116522 -13.936186 -16.618896 -33.885832 6.374116 41.475598 86.840398 38.500024 0.520092 -17.949366 -1.009002 -0.008724 0.571325 0.027175 -12.911581 -45.604191 13.187477 -179.533344 80.768907 175.068773 -2.226816 -17.374321 3.133756 -0.028907 -0.557051 -0.014429
-7.083193 55.372842 24.648751 -179.388060 -32.221215 -9.475401 0.428464 14.869560 5.201986 0.211084 8.474900 2.528546 0.351683 10.696710 3.183970 0.223930 8.521447 2.533317 4.514078 24.151723 -3.388080 5.736400 0.695285 -4.735494 0.813080 5.151100 -1.767823 -17.950533 -13.037848 5.910809 -64.686618 -45.862178 76.129286 1.198332 -8.438227 2.073548 -10.972740 4.886739 -3.032298 8.607646 -6.502284 -2.886412 42.858534 -84.801114 -35.239823 18.048713 -15.080630 -13.890083 -16.612749 -33.887063 6.380170 41.370834 86.843681 38.386467 0.512668 -17.954621 -1.001939 -0.008473 0.572138 0.030468 -12.911361 -45.605082 13.185633 -179.500535 80.768190 175.092048 -2.223500 -17.378381 3.143553 -0.028633 -0.557756 -0.013333
-7.086408 55.375087 24.645508 -179.376186 -32.194090 -9.484645 0.422579 14.864665 5.206697 0.226754 8.536306 2.535741 0.343292 10.666243 3.186168 0.224131 8.526003 2.537084 4.495870 24.108722 -3.392967 5.712255 0.635220 -4.736553 0.799388 5.141889 -1.751472 -17.975958 -13.019072 5.922426 -64.699877 -46.065332 76.131130 1.298757 -8.397327 2.096999 -10.974261 4.898713 -3.017416 8.649255 -6.503145 -2.881757 43.765566 -84.767446 -36.158251 18.109615 -15.100436 -13.883645 -16.629633 -33.906480 6.393328 41.326433 86.844840 38.337139 0.521697 -17.962663 -1.010823 -0.014222 0.574680 0.038515 -12.933746 -45.629254 13.201690 -179.458828 80.763626 175.124620 -2.229239 -17.382327 3.153565 -0.027820 -0.557686 -0.011682
-7.087660 55.376248 24.641199 -179.367982 -32.158272 -9.495986 0.418784 14.852056 5.214348 0.224470 8.526245 2.537275 0.345745 10.679405 3.189100 0.225631 8.540548 2.540907 4.472193 24.095442 -3.393214 5.700515 0.571899 -4.746647 0.785680 5.143966 -1.731667 -18.006454 -13.000104 5.931187 -64.707455 -46.260693 76.141225 1.409358 -8.349882 2.111136 -10.978038 4.919386 -3.002601 8.691509 -6.496893 -2.873406 44.654623 -84.679285 -37.046609 18.166924 -15.160265 -13.913791 -16.652599 -33.934088 6.417107 41.314315 86.849400 38.320558 0.519912 -17.970485 -1.010333 -0.002694 0.571768 0.025299 -12.961447 -45.661714 13.228013 -179.403892 80.755359 175.170920 -2.231176 -17.390737 3.162471 -0.028409 -0.556216 -0.010869
-7.090444 55.374592 24.637843 -179.342488 -32.096171 -9.498203 0.400206 14.833887 5.206827 0.223723 8.529226 2.540442 0.340618 10.659182 3.189795 0.223730 8.529268 2.540449 4.458531 24.089378 -3.395675 5.687874 0.529716 -4.750212 0.774238 5.170516 -1.709648 -18.031166 -12.984385 5.939698 -64.716765 -46.451402 76.154017 1.531778 -8.295250 2.120984 -10.981049 4.928475 -2.997609 8.714417 -6.455803 -2.843153 45.812382 -84.613723 -38.228954 18.276488 -15.175765 -13.926533 -16.688114 -33.991391 6.426921 41.349739 86.860673 38.348435 0.535974 -17.988697 -1.028126 -0.011403 0.576247 0.035741 -12.994776 -45.724812 13.236816 -179.355738 80.748488 175.208201 -2.234301 -17.396879 3.175380 -0.029191 -0.551620 -0.011041
-7.090994 55.374968 24.629250 -179.330785 -32.061056 -9.497386 0.399156 14.835920 5.210269 0.222318 8.531800 2.540183 0.345251 10.699605 3.194001 0.217495 8.494654 2.536675 4.437751 24.044167 -3.402955 5.670888 0.488274 -4.751399 0.765727 5.143661 -1.701027 -18.044955 -12.964858 5.948540 -64.730815 -46.631565 76.152196 1.665220 -8.235347 2.147934 -10.986860 4.903545 -2.987592 8.723633 -6.393131 -2.784809 47.927091 -84.490514 -40.375157 18.387887 -15.147263 -13.998273 -16.704806 -34.021925 6.433793 41.425996 86.873254 38.421776 0.530352 -18.005232 -1.028898 -0.010717 0.577148 0.038316 -13.005177 -45.757713 13.239769 -179.332885 80.738051 175.226117 -2.242266 -17.409177 3.185695 -0.027797 -0.550697 -0.011106
